<svg xmlns="http://www.w3.org/2000/svg" width="621.03" height="124" viewBox="0 0 621.03 124">
  <defs>
    <style>
      .cls-1 {
        fill-rule: evenodd;
        stroke: #0f644f;
        fill: #0f644f;
      }
    </style>
  </defs>
  <path id="LiveBoard" class="cls-1" d="M1146.23,479.307h7.83c0-.154.01-0.305,0.01-0.455a38.357,38.357,0,0,0-38.41-38.293c-0.15,0-.3.008-0.46,0.012v7.807A30.51,30.51,0,0,1,1146.23,479.307Zm15.79,0,7.51,0c0-.15.01-0.3,0.01-0.451a53.8,53.8,0,0,0-53.88-53.716c-0.16,0-.3.008-0.45,0.008l-0.01,7.486A46.256,46.256,0,0,1,1162.02,479.307Zm-35.55-11.235a15.175,15.175,0,0,1,4.46,11.231h7.31a22.488,22.488,0,0,0-23.04-22.968l0.01,7.3A15.236,15.236,0,0,1,1126.47,468.072Zm54.13,24.414V406.365h-57.32L1122.07,397h-8.53l-1.22,9.364H1055v86.121h60.19v3.632l-24.93,24.85,0.03,0.031h7.33l17.57-17.513v7.166a2.61,2.61,0,0,0,5.22,0v-7.166L1137.98,521h7.33l0.03-.031-24.93-24.85v-3.632h60.19Zm-119.21-6.248V418.2h112.82v68.034H1061.39Zm224.21,5.63V480.2h-34.52V423.2h-13.89v68.672h48.41Zm22.98-56.959v-12.28H1295.4v12.28h13.18Zm0,56.959V441.71H1295.4v50.158h13.18Zm39.07,0,19.79-50.158h-13.55l-9.48,25.6c-0.5,1.416-.96,2.833-1.4,4.25-0.19.693-.64,2.126-1.36,4.3l-2.72-8.548-9.38-25.6h-13.84l20.07,50.158h11.87Zm53.52-10.485a8.034,8.034,0,0,1-5.21,1.7,9.96,9.96,0,0,1-7.6-3.282q-3.045-3.282-3.19-9.186h33.02q0.285-15.255-6.14-22.647t-17.54-7.391a21.242,21.242,0,0,0-16.37,7.06q-6.48,7.062-6.47,19.53,0,10.439,4.92,17.286,6.24,8.548,19.23,8.549,8.205,0,13.67-3.8a21.651,21.651,0,0,0,8-11.075l-13.13-2.22A10.5,10.5,0,0,1,1401.17,481.383Zm-15.76-18.892q-0.045-5.43,2.77-8.6a9.459,9.459,0,0,1,13.97-.165c1.88,2,2.86,4.92,2.96,8.761h-19.7Zm50.94-3.9h17.39a60.139,60.139,0,0,1,8.36.532,19.17,19.17,0,0,1,6.43,1.983,10,10,0,0,1,4.13,4.111,14.726,14.726,0,0,1,1.44,7.013,17.394,17.394,0,0,1-1.29,7.3,9.453,9.453,0,0,1-3.89,4.256,17.272,17.272,0,0,1-6.58,1.983,78.629,78.629,0,0,1-9.37.484h-16.62V458.594Zm0-30.759h15.08a55.3,55.3,0,0,1,9.08.629,17.123,17.123,0,0,1,6.01,2.031,8.486,8.486,0,0,1,3.36,3.676,13.22,13.22,0,0,1,1.05,5.562,16.207,16.207,0,0,1-.91,5.658,9.514,9.514,0,0,1-3.02,4.159,14.478,14.478,0,0,1-5.58,2.564,35.6,35.6,0,0,1-8.55.87h-16.52V427.835Zm21.71,64.033a38.414,38.414,0,0,0,9.08-1.016,18.64,18.64,0,0,0,7.16-3.337,15.645,15.645,0,0,0,4.65-6.093,22.519,22.519,0,0,0,1.69-9.189,18.7,18.7,0,0,0-3.51-11.608q-3.51-4.643-10.71-5.706v-0.194a14.518,14.518,0,0,0,4.08-1.4,11.75,11.75,0,0,0,3.51-2.805,14.385,14.385,0,0,0,2.5-4.45,18.94,18.94,0,0,0,.96-6.335,19.674,19.674,0,0,0-1.25-7.11,13.674,13.674,0,0,0-3.99-5.562,18.929,18.929,0,0,0-7.06-3.578,37.458,37.458,0,0,0-10.37-1.258h-24.98v69.643h28.24Zm64.22-.532a20.542,20.542,0,0,0,7.3-5.368,24.58,24.58,0,0,0,4.66-8.319,33.967,33.967,0,0,0,1.63-10.833,37.567,37.567,0,0,0-1.39-10.35,23.277,23.277,0,0,0-4.28-8.367,20.8,20.8,0,0,0-7.2-5.61,23.314,23.314,0,0,0-10.19-2.079,23,23,0,0,0-10.08,2.079,20.682,20.682,0,0,0-7.21,5.659,24.389,24.389,0,0,0-4.32,8.367,35.6,35.6,0,0,0-1.44,10.3,33.025,33.025,0,0,0,1.83,11.51,23.6,23.6,0,0,0,4.94,8.222,20.134,20.134,0,0,0,7.3,4.933,25.78,25.78,0,0,0,8.98,1.741A23.225,23.225,0,0,0,1522.28,491.336Zm6.48-16.685a21.412,21.412,0,0,1-2.98,6.771,14.97,14.97,0,0,1-5.23,4.787,15.713,15.713,0,0,1-7.74,1.79,16.453,16.453,0,0,1-7.3-1.548,14.468,14.468,0,0,1-5.28-4.352,20.174,20.174,0,0,1-3.22-6.723,31.71,31.71,0,0,1-1.1-8.56,32.231,32.231,0,0,1,.96-7.883,20.811,20.811,0,0,1,2.98-6.771,15.178,15.178,0,0,1,5.23-4.74,15.7,15.7,0,0,1,7.73-1.789,16.807,16.807,0,0,1,7.79,1.644,14.317,14.317,0,0,1,5.18,4.5,19.684,19.684,0,0,1,2.98,6.722,34.482,34.482,0,0,1,.96,8.319A31.65,31.65,0,0,1,1528.76,474.651Zm50.24-1.258a13.141,13.141,0,0,1-1.54,6.529,13.442,13.442,0,0,1-4.08,4.546,18.187,18.187,0,0,1-5.81,2.66,26,26,0,0,1-6.73.871,15.17,15.17,0,0,1-3.98-.532,10.026,10.026,0,0,1-3.46-1.644,8.5,8.5,0,0,1-2.4-2.805,8.323,8.323,0,0,1-.91-4.015q0-5.125,3.69-7.641,3.705-2.514,10.33-3c2.5-.194,4.99-0.451,7.49-0.774a28.145,28.145,0,0,0,7.4-2.031v7.834Zm-17.68-9.672q-17.385,2.32-17.38,15.089a13.839,13.839,0,0,0,1.34,6.335,13.529,13.529,0,0,0,3.65,4.5,15.267,15.267,0,0,0,5.33,2.709,22.715,22.715,0,0,0,6.3.87,24.433,24.433,0,0,0,10.18-2.128,25.036,25.036,0,0,0,8.35-6.19,16.069,16.069,0,0,0,.2,2.563,6.842,6.842,0,0,0,.72,2.225,5.568,5.568,0,0,0,1.39,1.741,4.431,4.431,0,0,0,2.31.919,11.379,11.379,0,0,0,2.59.29,8.861,8.861,0,0,0,2.54-.387c0.87-.259,1.52-0.45,1.97-0.58v-4.547q-3.645,1.356-4.85.436t-1.2-4.305V455.983a17.374,17.374,0,0,0-1.39-7.352,12.16,12.16,0,0,0-3.84-4.788,16.411,16.411,0,0,0-5.77-2.611,29.284,29.284,0,0,0-7.06-.822,30.712,30.712,0,0,0-7.63.919,18.461,18.461,0,0,0-6.34,2.9,15.31,15.31,0,0,0-4.47,5.127,18.036,18.036,0,0,0-2.02,7.593h5.86a14.94,14.94,0,0,1,1.59-5.465,10.082,10.082,0,0,1,3.07-3.482,11.915,11.915,0,0,1,4.37-1.838,26.4,26.4,0,0,1,5.48-.532q6.72,0,9.55,2.853a9.93,9.93,0,0,1,2.84,7.3,14,14,0,0,1-.34,2.95,3.059,3.059,0,0,1-1.77,2.273,14.745,14.745,0,0,1-3.7,1.064c-1.51.259-2.81,0.452-3.89,0.581Zm44.57,3.579a43.027,43.027,0,0,1,.73-7.98,17.671,17.671,0,0,1,2.59-6.626,13.328,13.328,0,0,1,5.04-4.449,16.743,16.743,0,0,1,8.07-1.548V440.41q-6.24,0-10.04,2.369t-6.19,8.367h-0.2v-9.382h-5.76v50.1h5.76V467.3Zm63.26,7.786a20.727,20.727,0,0,1-3.22,6.771,15.212,15.212,0,0,1-5.28,4.5,15.448,15.448,0,0,1-7.21,1.644,17.008,17.008,0,0,1-6.72-1.306,15.392,15.392,0,0,1-5.38-3.821,17.719,17.719,0,0,1-3.6-6.142,24.655,24.655,0,0,1-1.3-8.366,32.878,32.878,0,0,1,.77-8.851,21.182,21.182,0,0,1,3.07-7.206,15.38,15.38,0,0,1,5.38-4.885,15.976,15.976,0,0,1,7.78-1.789,14.56,14.56,0,0,1,7.06,1.693,16.35,16.35,0,0,1,5.29,4.546,21.021,21.021,0,0,1,3.31,6.674,27.77,27.77,0,0,1,1.15,8.076A31.332,31.332,0,0,1,1669.15,475.086Zm1.1-25.294a17.86,17.86,0,0,0-7.63-7.013,22.871,22.871,0,0,0-10.14-2.369,20.992,20.992,0,0,0-9.84,2.176,20.267,20.267,0,0,0-6.92,5.8,24.979,24.979,0,0,0-4.08,8.463,37.249,37.249,0,0,0-1.35,10.06,41.383,41.383,0,0,0,1.25,10.349,22.626,22.626,0,0,0,3.99,8.367,19.076,19.076,0,0,0,6.96,5.562,23.613,23.613,0,0,0,10.28,2.031,18.773,18.773,0,0,0,4.9-.677,23.262,23.262,0,0,0,4.85-1.934,19.442,19.442,0,0,0,4.32-3.144,15.719,15.719,0,0,0,3.22-4.4h0.19v8.8h5.77V422.225h-5.77v27.567Z" transform="translate(-1055 -397)"/>
</svg>
